# xmcd CD database file
#
# Track frame offsets:
#	150
#	12358
#	27075
#	40220
#	54688
#	70835
#	85243
#	99965
#	115078
#	131500
#	145840
#	154340
#	168908
#	183215
#	199503
#	212585
#	232230
#	246130
#	263730
#	283490
#
# Disc length: 3854 seconds
#
# Revision: 0
# Processed by: cddbd v1.5PL3 Copyright (c) Steve Scherf et al.
# Submitted via: CDex 1.51
#
DISCID=190f0c14
DTITLE=Greatest Jazz - Jazz Collection Best 20
DYEAR=1900
DGENRE=Jazz
TTITLE0=When the saints go marchin' in (Louis Armstrong)
TTITLE1=At the woodchopper's ball (Woody Herman)
TTITLE2=Take the "A" train (Duke Ellington)
TTITLE3=Stardust (Tommy Dorsey and Frank Sinatra)
TTITLE4=In the mood ( Glenn Miller)
TTITLE5=Begin the beguine (Artie Shaw)
TTITLE6=Stompin' at the savoy (Benny Goodman)
TTITLE7=Laura (Harry James)
TTITLE8=Monday date (Earl Hines)
TTITLE9=Ain't misbehavin' (Fats Waller)
TTITLE10=Swanee (Al Jolson)
TTITLE11=Minnie the moocher (Cab Calloway)
TTITLE12=Lover man (Billie holiday)
TTITLE13=Sophisticated lady (Ella Fitzgerald)
TTITLE14=Embraceable you (Sarah Vaughan)
TTITLE15=Misty (Erroll Garner)
TTITLE16=Take five (Dave Brubeck)
TTITLE17=Autumn Leaves (Bill Evans)
TTITLE18=Blue Monk (Thelonious Monk)
TTITLE19=Theme (Miles Davis)
EXTD=
EXTT0=
EXTT1=
EXTT2=
EXTT3=
EXTT4=
EXTT5=
EXTT6=
EXTT7=
EXTT8=
EXTT9=
EXTT10=
EXTT11=
EXTT12=
EXTT13=
EXTT14=
EXTT15=
EXTT16=
EXTT17=
EXTT18=
EXTT19=
PLAYORDER=
